<svg xmlns="http://www.w3.org/2000/svg" xmlns:xlink="http://www.w3.org/1999/xlink" version="1.1" x="0px" y="0px" viewBox="0 0 100 125" style="enable-background:new 0 0 100 100;" xml:space="preserve"><style type="text/css">
	.st0{fill:#5B5D6E;}
</style><path class="st0" d="M96.4,31c0-2.5-7.3-3.9-18.6-4.6l-0.1-5.1l0-0.9L77.4,6.6c0,0,0,0,0,0s0,0,0,0v0c0,0,0,0,0,0C77.2,4.8,65,3.3,49.9,3.3  c-15.1,0-27.4,1.4-27.4,3.2l-0.3,13.9l0,0.9l-0.1,5.1C10.8,27.1,3.6,28.5,3.6,31c0,2.4,6.7,6.7,17.2,10c0,0.4-0.1,0.9-0.1,1.3  c-3.1,2.1-5,5.6-5,9.4c0,5.2,3.5,9.6,8.4,10.9l0,0.3l0,0l1.7,13.7c0.1,0.8,0.4,1.6,1,2.2l8.2,9.7v0l7,8.5H58l7-8.5v0l8.2-9.8  c0.4-0.5,0.7-1.1,0.8-1.7c0.1-0.2,0.1-0.5,0.2-0.7l1.5-13.6c5-1.2,8.6-5.7,8.6-11c0-3.8-1.9-7.2-4.9-9.3c0-0.4-0.1-0.9-0.1-1.4  C89.8,37.7,96.4,33.3,96.4,31z M61.4,81.7l-1.8,2.2l-2.3-4.3l-2.4,0H45l-2.4,0l-2.3,4.2l-1.8-2.2v-3.3v-2.6v-2h22.8V81.7z   M80.4,51.6c0,4-3.3,7.3-7.3,7.3c-0.1,0-0.1,0-0.2,0c-0.4,0.8-0.7,1.4-1,2l0,0.3l0,0l-1.6,14.5l-2,2.6L65,82.2V68.8l-11.5-1.3  l-1.6,1.9H48l-1.6-1.9l-11.5,1.3V82l-3.1-3.5l-2.1-2.6v0l-2-15.6c-0.2-0.4-0.4-0.8-0.6-1.3c-0.1,0-0.1,0-0.2,0c-4,0-7.3-3.3-7.3-7.3  c0-3.1,2-5.8,4.8-6.8c0.2-2.2,0.5-5.3,0.8-7.7l0.1-0.1c3.3-0.5,10.2-1.2,24.7-1.1c14.6,0,21.6,0.7,24.9,1.2l0.1,0.1  c0.2,2.5,0.5,5.5,0.6,7.8C78.4,45.9,80.4,48.5,80.4,51.6z"/></svg>